<svg version="1.2" xmlns="http://www.w3.org/2000/svg" viewBox="0 0 380 91" width="260" height="62">
	<style>
		.s0 { fill: #0e532b } 
	</style>
	<path id="buster" class="s0" aria-label="buster"  d="m4.9 88v-85.1h14.8v36.2h0.8q2.4-5.4 6.5-8.6 4.3-3.2 11.2-3.2 5 0 9.2 1.9 4.2 1.9 7.2 5.8 3 3.8 4.6 9.6 1.6 5.9 1.6 13.7 0 7.8-1.6 13.7-1.6 5.9-4.6 9.8-3 3.8-7.2 5.7-4.2 1.9-9.2 1.9-6.9 0-11.2-3.2-4.1-3.3-6.5-8.7h-0.8v10.5zm27-10.4q6.4 0 9.9-3.9 3.5-3.9 3.5-10.7v-9.4q0-6.8-3.5-10.7-3.5-3.9-9.9-3.9-5.1 0-8.8 2.5-3.5 2.5-3.5 7.5v18.6q0 5.1 3.5 7.6 3.7 2.4 8.8 2.4zm73.7 10.4v-10.5h-0.6q-2 4.9-6.1 8.4-4 3.5-11.3 3.5-8.7 0-14.2-5.8-5.4-5.8-5.4-16.6v-38.3h14.7v36.2q0 12.9 11.1 12.9 2.2 0 4.3-0.6 2.2-0.6 3.8-1.7 1.7-1.3 2.6-3 1.1-1.8 1.1-4.2v-39.6h14.7v59.3zm51.6 1.4q-9.8 0-16.9-3-7.1-3.1-11.2-8.3l8.7-7.8q3.7 4 8.4 6.2 4.8 2.2 11.1 2.2 5.5 0 8.9-1.9 3.3-1.8 3.3-5.6 0-3.2-2.3-4.4-2.2-1.1-5.9-1.7l-9.5-1.5q-3.7-0.6-7.2-1.6-3.5-1.1-6.3-3.1-2.6-2-4.2-4.9-1.6-3.1-1.6-7.5 0-9.3 6.9-14.3 7-4.9 19.2-4.9 8.6 0 14.6 2.4 6.1 2.4 10 6.8l-7.7 8.5q-2.5-2.8-6.8-4.8-4.1-2.2-10.6-2.2-11.2 0-11.2 7 0 3.2 2.3 4.5 2.3 1.1 5.9 1.7l9.5 1.5q3.8 0.6 7.2 1.7 3.6 1.1 6.2 3 2.8 2 4.4 5 1.6 2.9 1.6 7.3 0 9.2-7.1 14.5-7 5.2-19.7 5.2zm89.6-1.4h-22.3q-8.5 0-12.6-4.5-4-4.5-4-11.6v-31.6h-17.2v-11.6h11.7q3.5 0 5-1.4 1.5-1.5 1.5-5.2v-14.4h13.7v21h24.2v11.6h-24.2v36.1h24.2zm38 1.4q-7.1 0-12.6-2.2-5.6-2.2-9.3-6.2-3.7-4.1-5.7-9.7-1.9-5.7-1.9-12.9 0-7.2 1.9-13 2.1-5.7 5.8-9.7 3.6-4.1 8.8-6.3 5.3-2.1 11.9-2.1 6.4 0 11.6 2.1 5.2 2.1 8.7 6 3.7 3.9 5.7 9.5 1.9 5.5 1.9 12.1v4.9h-41.6v1.5q0 6.4 4 10.4 4 3.9 11.3 3.9 5.5 0 9.4-2.1 4-2.3 6.7-6l8.4 8.4q-3.2 4.7-9.5 8-6.1 3.4-15.5 3.4zm-1-51.3q-6.2 0-10 3.9-3.8 3.9-3.8 10.3v0.8h26.9v-1q0-6.4-3.6-10.2-3.4-3.8-9.5-3.8zm36.8 49.9v-11.6h14.7v-36.1h-14.7v-11.7h29.4v16.3h0.9q0.8-3.1 2.2-6 1.5-3 3.7-5.2 2.3-2.3 5.5-3.7 3.2-1.4 7.7-1.4h6.5v13.8h-12.2q-6.7 0-10.5 4-3.8 3.9-3.8 10v20h20.6v11.6z"/>
</svg>